<mxfile host="app.diagrams.net" agent="Mozilla/5.0 (Windows NT 10.0; Win64; x64) AppleWebKit/537.36 (KHTML, like Gecko) Chrome/126.0.0.0 YaBrowser/24.7.0.0 Safari/537.36" version="24.7.14">
  <diagram name="Страница — 1" id="5w8jx2c5FHFIApxxNt1U">
    <mxGraphModel dx="1195" dy="659" grid="1" gridSize="10" guides="1" tooltips="1" connect="1" arrows="1" fold="1" page="1" pageScale="1" pageWidth="827" pageHeight="1169" math="0" shadow="0">
      <root>
        <mxCell id="0" />
        <mxCell id="1" parent="0" />
        <mxCell id="Drz1f3sFkcvoCsL7VcVg-10" value="" style="edgeStyle=orthogonalEdgeStyle;rounded=0;orthogonalLoop=1;jettySize=auto;html=1;fontFamily=Helvetica;fontSize=12;fontColor=default;endArrow=none;endFill=0;" edge="1" parent="1" source="Drz1f3sFkcvoCsL7VcVg-2" target="Drz1f3sFkcvoCsL7VcVg-4">
          <mxGeometry relative="1" as="geometry" />
        </mxCell>
        <mxCell id="Drz1f3sFkcvoCsL7VcVg-2" value="Начало&amp;nbsp;" style="strokeWidth=1;html=1;shape=mxgraph.flowchart.terminator;whiteSpace=wrap;shadow=0;" vertex="1" parent="1">
          <mxGeometry x="320" y="70" width="240" height="50" as="geometry" />
        </mxCell>
        <mxCell id="Drz1f3sFkcvoCsL7VcVg-11" value="" style="edgeStyle=orthogonalEdgeStyle;rounded=0;orthogonalLoop=1;jettySize=auto;html=1;fontFamily=Helvetica;fontSize=12;fontColor=default;endArrow=none;endFill=0;" edge="1" parent="1" source="Drz1f3sFkcvoCsL7VcVg-4" target="Drz1f3sFkcvoCsL7VcVg-6">
          <mxGeometry relative="1" as="geometry" />
        </mxCell>
        <mxCell id="Drz1f3sFkcvoCsL7VcVg-4" value="Открытие окна авторизации" style="rounded=0;whiteSpace=wrap;html=1;absoluteArcSize=1;arcSize=14;strokeWidth=1;" vertex="1" parent="1">
          <mxGeometry x="320" y="160" width="240" height="60" as="geometry" />
        </mxCell>
        <mxCell id="Drz1f3sFkcvoCsL7VcVg-12" value="" style="edgeStyle=orthogonalEdgeStyle;rounded=0;orthogonalLoop=1;jettySize=auto;html=1;fontFamily=Helvetica;fontSize=12;fontColor=default;endArrow=none;endFill=0;" edge="1" parent="1" source="Drz1f3sFkcvoCsL7VcVg-6" target="Drz1f3sFkcvoCsL7VcVg-7">
          <mxGeometry relative="1" as="geometry" />
        </mxCell>
        <mxCell id="Drz1f3sFkcvoCsL7VcVg-6" value="Ввод логина и пароля&amp;nbsp;" style="shape=parallelogram;html=1;strokeWidth=1;perimeter=parallelogramPerimeter;whiteSpace=wrap;rounded=0;arcSize=12;size=0.23;" vertex="1" parent="1">
          <mxGeometry x="320" y="260" width="240" height="60" as="geometry" />
        </mxCell>
        <mxCell id="Drz1f3sFkcvoCsL7VcVg-13" value="" style="edgeStyle=orthogonalEdgeStyle;rounded=0;orthogonalLoop=1;jettySize=auto;html=1;fontFamily=Helvetica;fontSize=12;fontColor=default;endArrow=none;endFill=0;" edge="1" parent="1" source="Drz1f3sFkcvoCsL7VcVg-7" target="Drz1f3sFkcvoCsL7VcVg-8">
          <mxGeometry relative="1" as="geometry" />
        </mxCell>
        <mxCell id="Drz1f3sFkcvoCsL7VcVg-15" style="edgeStyle=orthogonalEdgeStyle;rounded=0;orthogonalLoop=1;jettySize=auto;html=1;exitX=1;exitY=0.5;exitDx=0;exitDy=0;exitPerimeter=0;entryX=0.5;entryY=0;entryDx=0;entryDy=0;fontFamily=Helvetica;fontSize=12;fontColor=default;endArrow=none;endFill=0;" edge="1" parent="1" source="Drz1f3sFkcvoCsL7VcVg-7" target="Drz1f3sFkcvoCsL7VcVg-6">
          <mxGeometry relative="1" as="geometry" />
        </mxCell>
        <mxCell id="Drz1f3sFkcvoCsL7VcVg-7" value="Данные верные?" style="strokeWidth=1;html=1;shape=mxgraph.flowchart.decision;whiteSpace=wrap;" vertex="1" parent="1">
          <mxGeometry x="320" y="360" width="240" height="50" as="geometry" />
        </mxCell>
        <mxCell id="Drz1f3sFkcvoCsL7VcVg-14" value="" style="edgeStyle=orthogonalEdgeStyle;rounded=0;orthogonalLoop=1;jettySize=auto;html=1;fontFamily=Helvetica;fontSize=12;fontColor=default;endArrow=none;endFill=0;" edge="1" parent="1" source="Drz1f3sFkcvoCsL7VcVg-8" target="Drz1f3sFkcvoCsL7VcVg-9">
          <mxGeometry relative="1" as="geometry" />
        </mxCell>
        <mxCell id="Drz1f3sFkcvoCsL7VcVg-8" value="Успешный вход" style="rounded=0;whiteSpace=wrap;html=1;absoluteArcSize=1;arcSize=14;strokeWidth=1;" vertex="1" parent="1">
          <mxGeometry x="320" y="440" width="240" height="60" as="geometry" />
        </mxCell>
        <mxCell id="Drz1f3sFkcvoCsL7VcVg-9" value="Конец" style="strokeWidth=1;html=1;shape=mxgraph.flowchart.terminator;whiteSpace=wrap;shadow=0;" vertex="1" parent="1">
          <mxGeometry x="320" y="540" width="240" height="50" as="geometry" />
        </mxCell>
      </root>
    </mxGraphModel>
  </diagram>
</mxfile>
